<svg xmlns="http://www.w3.org/2000/svg" viewBox="0 0 2000 600" role="img" aria-labelledby="title desc">
  <title id="title">Blue academic research illustration</title>
  <desc id="desc">A wide campus and hospital scene with abstract AI, statistics, surgical, and physiology motifs in a blue palette.</desc>
  <defs>
    <linearGradient id="sky" x1="0" x2="1" y1="0" y2="1">
      <stop offset="0" stop-color="#eaf1ff"/>
      <stop offset="1" stop-color="#f9fbff"/>
    </linearGradient>
    <pattern id="paper" width="8" height="8" patternUnits="userSpaceOnUse">
      <rect width="8" height="8" fill="transparent"/>
      <circle cx="1" cy="1" r=".55" fill="#4273b5" opacity=".11"/>
    </pattern>
  </defs>

  <rect width="2000" height="600" fill="url(#sky)"/>
  <rect width="2000" height="600" fill="url(#paper)"/>

  <path d="M0 395 C180 335 340 360 520 323 C730 280 870 346 1035 306 C1265 252 1407 300 1604 262 C1760 232 1888 254 2000 214 L2000 600 L0 600 Z" fill="#d9e6fb"/>
  <path d="M0 430 C210 387 330 418 520 376 C733 329 920 406 1110 352 C1305 296 1450 360 1625 322 C1810 282 1908 317 2000 290 L2000 600 L0 600 Z" fill="#c4d8f4"/>

  <g transform="translate(350 245)">
    <rect x="0" y="130" width="1320" height="120" fill="#fff6e8" stroke="#1f3557" stroke-width="3"/>
    <rect x="42" y="80" width="250" height="170" fill="#fffaf1" stroke="#1f3557" stroke-width="3"/>
    <rect x="1028" y="80" width="250" height="170" fill="#fffaf1" stroke="#1f3557" stroke-width="3"/>
    <path d="M20 130 L166 48 L312 130 Z" fill="#4273b5" stroke="#1f3557" stroke-width="3"/>
    <path d="M1008 130 L1154 48 L1300 130 Z" fill="#4273b5" stroke="#1f3557" stroke-width="3"/>
    <rect x="480" y="72" width="360" height="178" fill="#fffaf1" stroke="#1f3557" stroke-width="3"/>
    <path d="M458 74 L660 0 L862 74 Z" fill="#4273b5" stroke="#1f3557" stroke-width="3"/>
    <circle cx="660" cy="110" r="42" fill="#f6fbff" stroke="#1f3557" stroke-width="3"/>
    <path d="M626 250 C626 190 694 190 694 250" fill="#d9e6fb" stroke="#1f3557" stroke-width="3"/>
    <g fill="#1f3557">
      <rect x="78" y="158" width="28" height="46"/><rect x="126" y="158" width="28" height="46"/><rect x="174" y="158" width="28" height="46"/><rect x="222" y="158" width="28" height="46"/>
      <rect x="1070" y="158" width="28" height="46"/><rect x="1118" y="158" width="28" height="46"/><rect x="1166" y="158" width="28" height="46"/><rect x="1214" y="158" width="28" height="46"/>
      <rect x="528" y="148" width="28" height="48"/><rect x="580" y="148" width="28" height="48"/><rect x="712" y="148" width="28" height="48"/><rect x="764" y="148" width="28" height="48"/>
    </g>
  </g>

  <g transform="translate(0 0)" fill="#214d8f">
    <path d="M0 0 H660 C560 54 448 65 330 55 C222 46 120 72 0 132 Z" opacity=".98"/>
    <path d="M0 95 C135 50 235 74 304 142 C202 162 128 195 0 223 Z" opacity=".7"/>
    <path d="M0 230 C130 198 218 220 285 285 C180 286 75 318 0 360 Z" opacity=".55"/>
  </g>

  <g transform="translate(0 120)" stroke="#182a44" stroke-width="6" fill="none" stroke-linecap="round">
    <path d="M80 430 C112 300 111 170 83 15"/>
    <path d="M86 114 C130 71 190 50 290 42"/>
    <path d="M91 150 C154 138 230 141 305 172"/>
    <path d="M89 220 C153 200 232 213 300 252"/>
  </g>

  <g transform="translate(520 232)">
    <path d="M48 308 V124 C48 86 96 78 115 112 L162 196 L138 308 Z" fill="#2f5fa9" stroke="#182a44" stroke-width="3"/>
    <circle cx="98" cy="78" r="33" fill="#f5d4b0" stroke="#182a44" stroke-width="3"/>
    <path d="M73 70 C80 38 111 40 131 65 C117 60 103 58 88 66 Z" fill="#182a44"/>
    <path d="M104 110 L114 202 L82 202 L91 110 Z" fill="#fff" opacity=".55"/>
    <path d="M73 155 C38 178 18 216 8 308" stroke="#182a44" stroke-width="3" fill="none"/>
    <path d="M140 165 C190 190 216 236 224 308" stroke="#182a44" stroke-width="3" fill="none"/>
  </g>

  <g transform="translate(865 72)" stroke="#182a44" stroke-width="2.8" fill="none">
    <line x1="30" y1="105" x2="260" y2="105"/>
    <line x1="90" y1="35" x2="90" y2="175"/>
    <line x1="170" y1="35" x2="170" y2="175"/>
    <circle cx="30" cy="105" r="10" fill="#4273b5"/>
    <circle cx="90" cy="35" r="16" fill="#8eb0e5"/>
    <circle cx="90" cy="105" r="20" fill="#4273b5"/>
    <circle cx="90" cy="175" r="16" fill="#f7c66a"/>
    <circle cx="170" cy="35" r="16" fill="#f7c66a"/>
    <circle cx="170" cy="105" r="20" fill="#fff6e8"/>
    <circle cx="170" cy="175" r="16" fill="#4273b5"/>
    <circle cx="250" cy="105" r="12" fill="#f7c66a"/>
    <path d="M260 105 L285 92 M260 105 L285 118"/>
  </g>

  <g transform="translate(1180 78)" stroke="#182a44" stroke-width="3" fill="none">
    <path d="M0 168 C38 105 82 207 122 142 C160 78 198 180 252 104"/>
    <path d="M252 104 L288 86"/>
    <path d="M286 86 L278 104 M286 86 L268 78"/>
    <g fill="#4273b5">
      <circle cx="28" cy="230" r="9"/><circle cx="72" cy="214" r="6"/><circle cx="104" cy="238" r="7"/><circle cx="144" cy="210" r="6"/><circle cx="186" cy="228" r="8"/><circle cx="222" cy="198" r="6"/>
    </g>
    <g fill="#f7c66a">
      <circle cx="46" cy="205" r="5"/><circle cx="126" cy="220" r="5"/><circle cx="166" cy="196" r="5"/><circle cx="246" cy="220" r="5"/>
    </g>
  </g>

  <g transform="translate(1510 50)" stroke="#182a44" stroke-width="3" fill="#d8e6fb">
    <polygon points="116,0 230,54 250,174 158,252 42,224 0,104"/>
    <polygon points="116,0 158,252 0,104" fill="#8eb0e5"/>
    <polygon points="116,0 230,54 158,252" fill="#6f98d8"/>
    <polygon points="0,104 158,252 42,224" fill="#4273b5"/>
    <line x1="0" y1="104" x2="230" y2="54"/>
    <line x1="42" y1="224" x2="250" y2="174"/>
  </g>

  <g transform="translate(1280 260)" stroke="#182a44" stroke-width="3" fill="none">
    <line x1="0" y1="84" x2="350" y2="84"/>
    <line x1="20" y1="84" x2="20" y2="20"/><line x1="142" y1="84" x2="142" y2="0"/><line x1="280" y1="84" x2="280" y2="28"/>
    <circle cx="20" cy="20" r="13" fill="#4273b5"/>
    <circle cx="142" cy="0" r="13" fill="#f7c66a"/>
    <circle cx="280" cy="28" r="13" fill="#4273b5"/>
    <g>
      <circle cx="52" cy="84" r="5" fill="#f7c66a"/><circle cx="70" cy="84" r="5" fill="#4273b5"/><circle cx="88" cy="84" r="5" fill="#f7c66a"/><circle cx="106" cy="84" r="5" fill="#4273b5"/>
      <circle cx="180" cy="84" r="5" fill="#4273b5"/><circle cx="198" cy="84" r="5" fill="#f7c66a"/><circle cx="216" cy="84" r="5" fill="#4273b5"/><circle cx="234" cy="84" r="5" fill="#f7c66a"/>
    </g>
  </g>

  <g transform="translate(1665 332)" fill="#214d8f">
    <path d="M0 138 C50 50 134 40 190 120 C126 112 70 126 0 138 Z" opacity=".72"/>
    <path d="M130 145 C192 66 284 76 330 146 C260 132 192 132 130 145 Z" opacity=".56"/>
  </g>
  <g transform="translate(180 376)" fill="#4273b5">
    <path d="M0 112 C52 20 150 14 215 100 C145 86 72 96 0 112 Z" opacity=".75"/>
    <path d="M140 118 C204 36 294 44 342 116 C270 105 204 107 140 118 Z" opacity=".52"/>
  </g>
</svg>
