<svg xmlns="http://www.w3.org/2000/svg" viewBox="0 0 24 24" role="img" aria-label="GitHub">
  <path fill="#183f86" d="M12 .8a11.2 11.2 0 0 0-3.5 21.8c.6.1.8-.2.8-.6v-2.1c-3.3.7-4-1.4-4-1.4-.5-1.3-1.2-1.7-1.2-1.7-1-.7.1-.7.1-.7 1.1.1 1.7 1.2 1.7 1.2 1 .1.6 2.3 3.4 1.6.1-.7.4-1.2.7-1.5-2.6-.3-5.4-1.3-5.4-5.6 0-1.2.4-2.3 1.2-3.1-.1-.3-.5-1.5.1-3.1 0 0 .9-.3 3.1 1.2.9-.2 1.9-.4 2.9-.4s2 .1 2.9.4c2.1-1.5 3.1-1.2 3.1-1.2.6 1.6.2 2.8.1 3.1.7.8 1.2 1.8 1.2 3.1 0 4.3-2.8 5.3-5.4 5.6.4.4.8 1.1.8 2.2V22c0 .4.2.7.8.6A11.2 11.2 0 0 0 12 .8Z"/>
</svg>
