<svg xmlns="http://www.w3.org/2000/svg" viewBox="0 0 24 24" role="img" aria-label="Google Scholar">
  <path fill="#4273b5" d="M12 2 1.8 10.1 12 18.2l10.2-8.1L12 2Z"/>
  <path fill="#ffffff" d="M12 5.3 6.1 10.1 12 14.8l5.9-4.7L12 5.3Z" opacity=".95"/>
  <circle cx="12" cy="15.2" r="5.8" fill="#4273b5"/>
  <path fill="#ffffff" d="M8.3 16.1c.4 1.6 1.8 2.7 3.7 2.7 1.7 0 3.1-.9 3.7-2.4h-2.1c-.3.5-.9.8-1.6.8-.9 0-1.6-.4-2-1.1h5.9c.1-.3.1-.6.1-.9 0-2.3-1.7-4-4-4-2.4 0-4.1 1.7-4.1 4 0 .3 0 .6.1.9h.3Zm1.8-1.5c.3-1.1 1-1.7 1.9-1.7 1 0 1.7.6 2 1.7h-3.9Z"/>
</svg>
