<svg xmlns="http://www.w3.org/2000/svg" viewBox="0 0 24 24" role="img" aria-label="ResearchGate">
  <rect width="24" height="24" rx="4" fill="#4273b5"/>
  <path fill="#ffffff" d="M5.4 5.3h5.2c1.5 0 2.7.4 3.5 1.1.7.7 1 1.5 1 2.6 0 1.6-.8 2.8-2.3 3.3l2.9 6.4h-3.1l-2.5-5.9H8.3v5.9H5.4V5.3Zm4.9 5.3c1.2 0 1.9-.5 1.9-1.5s-.7-1.5-1.9-1.5h-2v3h2Z"/>
  <path fill="#ffffff" d="M16 13.1c0-3.4 2.1-5.6 5.1-5.6.6 0 1.1.1 1.5.2v2.5c-.4-.2-.8-.3-1.4-.3-1.5 0-2.4 1.1-2.4 3.1s.9 3.1 2.4 3.1c.5 0 1-.1 1.4-.3v2.5c-.5.2-1 .3-1.7.3-2.9.1-4.9-2.1-4.9-5.5Z" opacity=".9"/>
</svg>
